# xmcd
#
# Track frame offsets: 
#        150
#        9116
#        23061
#        35815
#        45434
#        57443
#        71089
#        82008
#        94389
#        105717
#        117157
#        129761
#        140545
#        153828
#        169626
#        181982
#        194143
#        204242
#        216485
#        226233
#        239031
#        249711
#        262902
#        274394
#
# Disc length: 3828 seconds
#
# Revision: 1
# Processed by: cddbd v1.5.2PL0 Copyright (c) Steve Scherf et al.
# Submitted via: ExactAudioCopy v0.99pb5
#
DISCID=5a0ef218
DTITLE=Howlin' Wolf - The Anthology (Remastered)
DYEAR=2007
DGENRE=Blues
TTITLE0=Smokestack Lightnin'
TTITLE1=You Can't Be Beat
TTITLE2=I Asked For Water (She Gave Me Gasoline)
TTITLE3=So Glad
TTITLE4=Going Back Home
TTITLE5=My Life
TTITLE6=Somebody In My Home
TTITLE7=Nature
TTITLE8=Sitting On Top Of The World
TTITLE9=Poor Boy
TTITLE10=Moanin' For My Baby
TTITLE11=I Didn't Know
TTITLE12=I'm Leavin' You
TTITLE13=Change My Way
TTITLE14=Howlin' Blues
TTITLE15=I Better Go Now
TTITLE16=I've Been Abused
TTITLE17=Mr. Airplane Man
TTITLE18=The Natchez Burnin'
TTITLE19=You Gonna Wreck My Life
TTITLE20=Who's Been Talking
TTITLE21=Tell Me
TTITLE22=Howlin' For My Darlin'
TTITLE23=Spoonful
EXTD=
EXTT0=
EXTT1=
EXTT2=
EXTT3=
EXTT4=
EXTT5=
EXTT6=
EXTT7=
EXTT8=
EXTT9=
EXTT10=
EXTT11=
EXTT12=
EXTT13=
EXTT14=
EXTT15=
EXTT16=
EXTT17=
EXTT18=
EXTT19=
EXTT20=
EXTT21=
EXTT22=
EXTT23=
PLAYORDER=
